HIERARCHY
ROOT RootJoint
{
    OFFSET   0.000000   0.000000   0.000000
    CHANNELS 6 Xposition Yposition Zposition Xrotation Yrotation Zrotation
    JOINT pelvis_lowerback
    {
        OFFSET   0.000000   0.093605   0.000000
        CHANNELS 3 Xrotation Yrotation Zrotation
        JOINT lowerback_torso
        {
            OFFSET   0.000000   0.100000   0.000000
            CHANNELS 3 Xrotation Yrotation Zrotation
            JOINT torso_head
            {
                OFFSET   0.000000   0.282350   0.000000
                CHANNELS 3 Xrotation Yrotation Zrotation
                End Site
                {
                    OFFSET   0.000000   0.192650   0.000000
                }
            }
            JOINT rTorso_Clavicle
            {
                OFFSET  -0.001000   0.157500   0.000000
                CHANNELS 3 Xrotation Yrotation Zrotation
                JOINT rShoulder
                {
                    OFFSET  -0.117647   0.000000   0.000000
                    CHANNELS 3 Xrotation Yrotation Zrotation
                    JOINT rElbow
                    {
                        OFFSET  -0.245000   0.000000   0.000000
                        CHANNELS 3 Xrotation Yrotation Zrotation
                        JOINT rWrist
                        {
                            OFFSET  -0.240000   0.000000   0.000000
                            CHANNELS 3 Xrotation Yrotation Zrotation
                            End Site
                            {
                                OFFSET  -0.116353  -0.002500   0.000000
                            }
                        }
                    }
                }
            }
            JOINT lTorso_Clavicle
            {
                OFFSET   0.001000   0.157500   0.000000
                CHANNELS 3 Xrotation Yrotation Zrotation
                JOINT lShoulder
                {
                    OFFSET   0.117647   0.000000   0.000000
                    CHANNELS 3 Xrotation Yrotation Zrotation
                    JOINT lElbow
                    {
                        OFFSET   0.245000   0.000000   0.000000
                        CHANNELS 3 Xrotation Yrotation Zrotation
                        JOINT lWrist
                        {
                            OFFSET   0.240000   0.000000   0.000000
                            CHANNELS 3 Xrotation Yrotation Zrotation
                            End Site
                            {
                                OFFSET   0.116353  -0.002500   0.000000
                            }
                        }
                    }
                }
            }
        }
    }
    JOINT rHip
    {
        OFFSET  -0.100000  -0.051395   0.000000
        CHANNELS 3 Xrotation Yrotation Zrotation
        JOINT rKnee
        {
            OFFSET   0.000000  -0.410000   0.000000
            CHANNELS 3 Xrotation Yrotation Zrotation
            JOINT rAnkle
            {
                OFFSET   0.000000  -0.390000   0.000000
                CHANNELS 3 Xrotation Yrotation Zrotation
                JOINT rToeJoint
                {
                    OFFSET   0.000000  -0.050000   0.130000
                    CHANNELS 3 Xrotation Yrotation Zrotation
                    End Site
                    {
                        OFFSET  -0.010000   0.002000   0.060000
                    }
                }
            }
        }
    }
    JOINT lHip
    {
        OFFSET   0.100000  -0.051395   0.000000
        CHANNELS 3 Xrotation Yrotation Zrotation
        JOINT lKnee
        {
            OFFSET   0.000000  -0.410000   0.000000
            CHANNELS 3 Xrotation Yrotation Zrotation
            JOINT lAnkle
            {
                OFFSET   0.000000  -0.390000   0.000000
                CHANNELS 3 Xrotation Yrotation Zrotation
                JOINT lToeJoint
                {
                    OFFSET   0.000000  -0.050000   0.130000
                    CHANNELS 3 Xrotation Yrotation Zrotation
                    End Site
                    {
                        OFFSET   0.010000   0.002000   0.060000
                    }
                }
            }
        }
    }
}
MOTION
Frames: 7
Frame Time:   0.008333
 -2.482286   0.882383   4.036647   4.505259  13.730720  -1.526305  -1.011518   1.472028  -0.027833   5.910121   2.681572  -0.961291  -3.934429   1.679923  -1.505525   2.534536   3.719954  18.518641  16.337644  24.033334  40.968683  -0.000024  25.682921  -0.000011   8.036215   3.685669 -17.178940   2.231308  -3.150185 -18.945849  13.183007 -15.470608 -51.640641  -0.003061 -10.020262  -0.000638   2.638259  -3.218230  16.647328  -5.896492 -18.317319 -11.275973  22.017927   0.000506  -0.000087 -18.010065 -11.615883   8.817966  -0.245629   0.000021   0.000000 -20.726511   5.201942  17.882891  13.874664  -0.002789   0.007707   4.255004   3.645617  -9.451512  -1.350697  -0.002133   0.007761
 -2.477499   0.880939   4.038204   4.669853  13.866389  -1.697868  -1.040633   1.437962  -0.031714   5.926098   2.631899  -0.929796  -3.993783   1.631124  -1.413479   2.435723   3.564885  18.552926  15.953718  23.507671  41.161127  -0.000097  25.711889   0.000181   7.905875   3.701361 -17.131422   2.261874  -3.208269 -18.893216  13.123390 -15.558046 -51.700350  -0.002802  -9.786542  -0.000722   2.512931  -3.219307  16.450036  -5.901651 -18.397494 -11.474135  22.032199   0.000450  -0.000076 -18.029756 -11.680985   9.244419   0.209857  -0.000200   0.000002 -21.391761   5.479304  18.169831  14.501729  -0.002247   0.009538   4.164784   3.933375  -9.402633  -1.150319  -0.001782   0.007822
 -2.472476   0.879462   4.039816   4.839151  13.997591  -1.867100  -1.065671   1.418982  -0.031139   5.940707   2.588953  -0.901878  -4.047222   1.587069  -1.323204   2.342051   3.410158  18.571219  15.599439  23.003961  41.323721  -0.000139  25.735043   0.000285   7.761299   3.688107 -17.153870   2.285844  -3.260875 -18.848932  13.061532 -15.642025 -51.758759  -0.002567  -9.572757  -0.000718   2.390322  -3.204251  16.261478  -5.896585 -18.474738 -11.684328  22.021105   0.000324  -0.000055 -18.043704 -11.748927   9.636821   0.118628  -0.000153   0.000001 -22.036105   5.751023  18.397955  15.123065  -0.001493   0.010809   4.084572   4.203262  -9.357067  -0.953367  -0.001402   0.007768
 -2.467265   0.877924   4.041486   5.016919  14.113119  -2.046186  -1.090474   1.407612  -0.025359   5.951009   2.552868  -0.875124  -4.096403   1.546640  -1.236827   2.252498   3.265021  18.578347  15.272075  22.530243  41.464587  -0.000165  25.755529   0.000341   7.619039   3.663895 -17.196285   2.304253  -3.309792 -18.809650  12.999377 -15.722170 -51.815279  -0.002360  -9.375442  -0.000694   2.268694  -3.177031  16.083155  -5.888307 -18.544553 -11.892924  21.995254   0.000172  -0.000031 -18.056382 -11.813437   9.998827   0.054759  -0.000140   0.000001 -22.645637   6.005192  18.591065  15.706352  -0.000707   0.011370   4.009824   4.454797  -9.314429  -0.771782  -0.001038   0.007497
 -2.462403   0.876818   4.042898   5.264391  14.278846  -2.120040  -1.093746   1.387944  -0.179301   5.951193   2.513342  -0.883691  -4.151091   1.507428  -1.159987   2.150334   3.149530  18.637482  14.949629  22.107269  41.615044  -0.000177  25.778728   0.000374   7.482450   3.643719 -17.244913   2.310196  -3.370079 -18.727421  12.950829 -15.790961 -51.812251  -0.002179  -9.183251  -0.000663   2.173744  -3.227548  15.929725  -5.947080 -18.625151 -12.190087  21.864836  -0.000284  -0.000010 -18.008505 -11.919071  10.292392   0.013909  -0.000136   0.000001 -23.260978   6.229742  18.657013  16.337069  -0.000127   0.011833   3.500625   4.664310  -9.419450  -0.556717  -0.000433   0.007271
 -2.457768   0.875866   4.044119   5.537337  14.432443  -2.184125  -1.071714   1.385765  -0.341410   5.958883   2.485658  -0.916351  -4.197358   1.471385  -1.097519   2.043625   3.051991  18.686641  14.641779  21.722694  41.756621  -0.000187  25.807336   0.000398   7.361192   3.655187 -17.286363   2.308505  -3.429385 -18.635377  12.900483 -15.858354 -51.806339  -0.002039  -9.007882  -0.000617   2.081007  -3.268926  15.822904  -6.027617 -18.697791 -12.480917  21.684646  -0.000780   0.000000 -17.924956 -12.022871  10.553580  -0.012838  -0.000127   0.000000 -23.856192   6.434505  18.693893  16.874686   0.000293   0.011555   3.098919   4.849357  -9.498028  -0.400388  -0.000099   0.006647
 -2.453352   0.874988   4.045194   5.821332  14.575889  -2.250794  -1.027219   1.391912  -0.501567   5.975593   2.466441  -0.956541  -4.235484   1.438116  -1.041913   1.935275   2.967513  18.725466  14.351090  21.368097  41.883488  -0.000189  25.837246   0.000401   7.251150   3.684499 -17.328413   2.295753  -3.486633 -18.542656  12.844421 -15.924049 -51.797413  -0.001913  -8.848830  -0.000563   1.985588  -3.285719  15.720504  -6.121426 -18.765516 -12.754801  21.485992  -0.001201   0.000001 -17.825104 -12.122333  10.793656  -0.029854  -0.000114  -0.000000 -24.434706   6.622084  18.720764  17.359459   0.000601   0.010972   2.738522   5.020973  -9.565622  -0.257061   0.000133   0.006018
